<?xml version="1.0" encoding="utf-8"?>
<!DOCTYPE svg PUBLIC "-//W3C//DTD SVG 1.1//EN" "http://www.w3.org/Graphics/SVG/1.1/DTD/svg11.dtd">
<svg width="140" height="111" viewBox="0 0 140 111" fill="none" xmlns="http://www.w3.org/2000/svg">
<path fill-rule="evenodd" clip-rule="evenodd" d="M137.842 111H95.1581C94.5185 111 94 110.552 94 110C94 109.448 94.5185 109 95.1581 109H137.842C138.482 109 139 109.448 139 110C139 110.552 138.482 111 137.842 111Z" fill="#007E92"/>
<path fill-rule="evenodd" clip-rule="evenodd" d="M44.7497 12.4315H25.8085C25.362 12.4315 25 12.111 25 11.7157C25 11.3204 25.362 11 25.8085 11H44.7497C45.1962 11 45.5582 11.3204 45.5582 11.7157C45.5582 12.111 45.1962 12.4315 44.7497 12.4315Z" fill="#007E92"/>
<path fill-rule="evenodd" clip-rule="evenodd" d="M19.9026 86.5838H30.0776V76.2893H19.9026V86.5838ZM18.1348 88.2995H31.8455V74.5736H18.1348V88.2995Z" fill="#007E92"/>
<path fill-rule="evenodd" clip-rule="evenodd" d="M21.417 80.0051H24.8431V78.2893H21.417V80.0051Z" fill="#007E92"/>
<path fill-rule="evenodd" clip-rule="evenodd" d="M113.045 99.9545H107.955V105.045H113.045V99.9545ZM114 99H107V106H114V99Z" fill="#007E92"/>
<path fill-rule="evenodd" clip-rule="evenodd" d="M121 104H116V105H121V104Z" fill="#007E92"/>
<path fill-rule="evenodd" clip-rule="evenodd" d="M125 102H116V103H125V102Z" fill="#007E92"/>
<path fill-rule="evenodd" clip-rule="evenodd" d="M122 100H116V101H122V100Z" fill="#007E92"/>
<path fill-rule="evenodd" clip-rule="evenodd" d="M6.96246 93.6808H5.89131V92.6085C5.89131 91.7201 5.17204 91 4.28459 91C3.39715 91 2.67787 91.7201 2.67787 92.6085V93.6808H1.60672C0.719276 93.6808 0 94.4009 0 95.2893C0 96.1778 0.719276 96.8978 1.60672 96.8978H2.67787V97.9702C2.67787 98.8586 3.39715 99.5787 4.28459 99.5787C5.17204 99.5787 5.89131 98.8586 5.89131 97.9702V96.8978H6.96246C7.84991 96.8978 8.56918 96.1778 8.56918 95.2893C8.56918 94.4009 7.84991 93.6808 6.96246 93.6808Z" fill="#1BD2AD"/>
<path fill-rule="evenodd" clip-rule="evenodd" d="M114.962 29.6808H113.891V28.6085C113.891 27.7201 113.172 27 112.285 27C111.397 27 110.678 27.7201 110.678 28.6085V29.6808H109.607C108.719 29.6808 108 30.4009 108 31.2893C108 32.1778 108.719 32.8978 109.607 32.8978H110.678V33.9702C110.678 34.8586 111.397 35.5787 112.285 35.5787C113.172 35.5787 113.891 34.8586 113.891 33.9702V32.8978H114.962C115.85 32.8978 116.569 32.1778 116.569 31.2893C116.569 30.4009 115.85 29.6808 114.962 29.6808Z" fill="#007E92"/>
<path fill-rule="evenodd" clip-rule="evenodd" d="M45.5342 106.539H45.0342V106.039C45.0342 105.625 44.6984 105.289 44.2842 105.289C43.8699 105.289 43.5342 105.625 43.5342 106.039V106.539H43.0342C42.6199 106.539 42.2842 106.875 42.2842 107.289C42.2842 107.704 42.6199 108.039 43.0342 108.039H43.5342V108.539C43.5342 108.954 43.8699 109.289 44.2842 109.289C44.6984 109.289 45.0342 108.954 45.0342 108.539V108.039H45.5342C45.9484 108.039 46.2842 107.704 46.2842 107.289C46.2842 106.875 45.9484 106.539 45.5342 106.539Z" fill="#1BD2AD"/>
<path fill-rule="evenodd" clip-rule="evenodd" d="M55.4277 1.71574C55.4277 2.66331 54.6604 3.43147 53.7138 3.43147C52.7673 3.43147 52 2.66331 52 1.71574C52 0.76816 52.7673 0 53.7138 0C54.6604 0 55.4277 0.76816 55.4277 1.71574Z" fill="#007E92"/>
<path fill-rule="evenodd" clip-rule="evenodd" d="M113.428 47.7157C113.428 48.6633 112.66 49.4315 111.714 49.4315C110.767 49.4315 110 48.6633 110 47.7157C110 46.7682 110.767 46 111.714 46C112.66 46 113.428 46.7682 113.428 47.7157Z" fill="#007E92"/>
<path fill-rule="evenodd" clip-rule="evenodd" d="M99.4277 9.71574C99.4277 10.6633 98.6604 11.4315 97.7138 11.4315C96.7673 11.4315 96 10.6633 96 9.71574C96 8.76816 96.7673 8 97.7138 8C98.6604 8 99.4277 8.76816 99.4277 9.71574Z" fill="#007E92"/>
<path fill-rule="evenodd" clip-rule="evenodd" d="M24.1399 37.5759C24.1399 34.4962 21.6462 32 18.5697 32C15.4932 32 13 34.4962 13 37.5759C13 40.6555 15.4932 43.1523 18.5697 43.1523C21.6462 43.1523 24.1399 40.6555 24.1399 37.5759Z" fill="#007E92"/>
<path fill-rule="evenodd" clip-rule="evenodd" d="M119.142 83.9492C117.046 83.9492 115.344 82.2448 115.344 80.1475C115.344 78.049 117.046 76.3447 119.142 76.3447C121.237 76.3447 122.939 78.049 122.939 80.1475C122.939 82.2448 121.237 83.9492 119.142 83.9492ZM119.142 75C116.304 75 114 77.3069 114 80.1475C114 82.9876 116.304 85.2944 119.142 85.2944C121.979 85.2944 124.283 82.9876 124.283 80.1475C124.283 77.3069 121.979 75 119.142 75Z" fill="#1BD2AD"/>
<path fill-rule="evenodd" clip-rule="evenodd" d="M96.407 21H52.1512C49.6186 21 47.558 23.0128 47.558 25.4867V35.5271C39.1627 37.874 33 45.4385 33 54.3828C33 63.3271 39.1625 70.8917 47.558 73.2386V90.5133C47.558 92.9872 49.6186 95 52.1512 95H88.3167C88.7458 95 89.1572 94.8335 89.4607 94.5372L100.526 83.7281C100.83 83.4317 101 83.0297 101 82.6106V25.4867C101 23.0128 98.9396 21 96.407 21ZM52.1512 24.1605H96.407C97.1555 24.1605 97.7645 24.7554 97.7645 25.4867V30.2559H50.7935V25.4867C50.7935 24.7554 51.4025 24.1605 52.1512 24.1605ZM53.0739 37.9346C43.7891 37.9346 36.2355 45.3131 36.2355 54.3827C36.2355 63.4522 43.7891 70.8309 53.0739 70.8309C62.3587 70.8309 69.9123 63.4522 69.9123 54.3827C69.9123 45.3131 62.3587 37.9346 53.0739 37.9346ZM50.7935 90.5132V73.864C51.5423 73.9471 52.3029 73.9914 53.0741 73.9914C59.1036 73.9914 64.5203 71.3807 68.2031 67.2562H78.1154C79.0088 67.2562 79.7331 66.5487 79.7331 65.676C79.7331 64.8032 79.0088 64.0957 78.1154 64.0957H70.5072C71.9143 61.6953 72.8158 58.978 73.0716 56.0829H78.1152C79.0087 56.0829 79.733 55.3754 79.733 54.5026C79.733 53.6299 79.0087 52.9224 78.1152 52.9224H73.092C72.8733 50.0337 72.0105 47.3175 70.6445 44.9097H78.1151C79.0085 44.9097 79.7328 44.2022 79.7328 43.3294C79.7328 42.4567 79.0085 41.7492 78.1151 41.7492H68.4126C64.7275 37.4866 59.2192 34.774 53.0736 34.774C52.3025 34.774 51.5418 34.8182 50.793 34.9013V33.4163H97.764V81.0301H91.2917C88.7589 81.0301 86.6987 83.0428 86.6987 85.5166V91.8392H52.1512C51.4025 91.8392 50.7935 91.2444 50.7935 90.5132ZM89.9346 85.5167V89.6043L95.4767 84.1907H91.2921C90.5437 84.1907 89.9346 84.7855 89.9346 85.5167Z" fill="#007E92"/>
<path fill-rule="evenodd" clip-rule="evenodd" d="M133.143 8.14286C133.143 11.2937 135.706 13.8571 138.857 13.8571C139.488 13.8571 140 14.368 140 15C140 15.632 139.488 16.1429 138.857 16.1429C135.706 16.1429 133.143 18.7063 133.143 21.8571C133.143 22.4891 132.631 23 132 23C131.369 23 130.857 22.4891 130.857 21.8571C130.857 18.7063 128.294 16.1429 125.143 16.1429C124.512 16.1429 124 15.632 124 15C124 14.368 124.512 13.8571 125.143 13.8571C128.294 13.8571 130.857 11.2937 130.857 8.14286C130.857 7.51086 131.369 7 132 7C132.631 7 133.143 7.51086 133.143 8.14286ZM129.261 15C130.381 15.6754 131.325 16.6194 132 17.7394C132.675 16.6194 133.619 15.6754 134.739 15C133.619 14.3246 132.675 13.3806 132 12.2606C131.325 13.3806 130.381 14.3246 129.261 15Z" fill="#1BD2AD"/>
<path d="M32.7143 21.7143C31.9266 21.7143 31.2857 21.0734 31.2857 20.2857C31.2857 20.1277 31.1577 20 31 20C30.8423 20 30.7143 20.1277 30.7143 20.2857C30.7143 21.0734 30.0734 21.7143 29.2857 21.7143C29.128 21.7143 29 21.842 29 22C29 22.158 29.128 22.2857 29.2857 22.2857C30.0734 22.2857 30.7143 22.9266 30.7143 23.7143C30.7143 23.8723 30.8423 24 31 24C31.1577 24 31.2857 23.8723 31.2857 23.7143C31.2857 22.9266 31.9266 22.2857 32.7143 22.2857C32.872 22.2857 33 22.158 33 22C33 21.842 32.872 21.7143 32.7143 21.7143Z" fill="#1BD2AD"/>
<path d="M83.6914 45H89.3086C90.2427 45 91 44.1046 91 43C91 41.8954 90.2427 41 89.3086 41H83.6914C82.7573 41 82 41.8954 82 43C82 44.1046 82.7573 45 83.6914 45Z" fill="#1BD2AD"/>
<path d="M83.6914 56H89.3086C90.2427 56 91 55.1046 91 54C91 52.8954 90.2427 52 89.3086 52H83.6914C82.7573 52 82 52.8954 82 54C82 55.1046 82.7573 56 83.6914 56Z" fill="#1BD2AD"/>
<path d="M83.6914 68H89.3086C90.2427 68 91 67.1046 91 66C91 64.8954 90.2427 64 89.3086 64H83.6914C82.7573 64 82 64.8954 82 66C82 67.1046 82.7573 68 83.6914 68Z" fill="#1BD2AD"/>
<path d="M89.4148 79C90.2903 79 91 78.1046 91 77C91 75.8954 90.2903 75 89.4148 75H74.5852C73.7097 75 73 75.8954 73 77C73 78.1046 73.7097 79 74.5852 79H89.4148Z" fill="#1BD2AD"/>
<path fill-rule="evenodd" clip-rule="evenodd" d="M63.2835 44.7896L65.2007 46.6807C66.2664 47.7319 66.2664 49.4425 65.2008 50.4938L51.2947 64.2104C50.7786 64.7195 50.0921 65 49.3621 65H49.3619C48.6317 65 47.9452 64.7195 47.4289 64.2101L40.7993 57.671C39.7336 56.6198 39.7336 54.9093 40.7992 53.8581L42.7168 51.9667C43.233 51.4576 43.9195 51.1771 44.6495 51.1771C45.3796 51.1771 46.0661 51.4576 46.5823 51.9666L49.3619 54.7084L59.4177 44.7896C59.9341 44.2805 60.6204 44 61.3506 44C62.0808 44 62.7672 44.2805 63.2835 44.7896ZM43.3111 55.7645L49.3618 61.7325L62.6889 48.5872L61.3506 47.2672L50.473 57.9965C49.8593 58.6019 48.8643 58.6019 48.2506 57.9965L44.6494 54.4444L43.3111 55.7645Z" fill="#1BD2AD"/>
</svg>
