<?xml version="1.0" encoding="utf-8"?>
<!DOCTYPE svg PUBLIC "-//W3C//DTD SVG 1.1//EN" "http://www.w3.org/Graphics/SVG/1.1/DTD/svg11.dtd">
<svg version="1.1" id="Layer_1" xmlns="http://www.w3.org/2000/svg" xmlns:xlink="http://www.w3.org/1999/xlink" x="0px" y="0px"
width="148" height="40" viewBox="0 0 148 40" fill="none" enable-background="new 0 0 72 72" xml:space="preserve">
  <g>
    <path d="M2.41357 23.3456C2.41357 26.0401 4.03914 29.0765 7.26618 32.3044C10.492 35.5312 13.5247 37.1586 16.2205 37.1576H16.2215C19.2235 37.1586 21.9121 35.3888 24.5488 32.5253C20.7003 34.524 16.5432 34.1222 10.9982 28.565C5.49882 23.0514 5.09198 18.9112 7.07216 15.0853C4.09265 17.7455 2.41255 20.3513 2.41357 23.3456Z" fill="#004A57"/>
    <path d="M51.5857 16.29C51.5857 13.5958 49.9604 10.5583 46.7331 7.33043C43.5068 4.10496 40.4746 2.47675 37.7788 2.47783H37.7778C34.7761 2.47675 32.0867 4.24655 29.45 7.10946C33.2985 5.11087 37.4561 5.51268 43.0005 11.0693C48.5008 16.5853 48.9073 20.7244 46.9272 24.5514C49.9077 21.8909 51.5857 19.2848 51.5857 16.29Z" fill="#316524"/>
    <path fill-rule="evenodd" clip-rule="evenodd" d="M21.2155 6.82975C27.6359 0.408017 35.7422 -4.61496 47.175 6.81733C51.7471 11.3905 53.9999 15.6968 53.9999 19.9231C53.9999 24.066 51.8367 28.16 47.1929 32.8069C40.7683 39.2279 32.6604 44.2508 21.2284 32.8212L21.2002 32.7896C9.77262 21.3578 14.7938 13.253 21.2155 6.82975ZM26.6334 27.4164C34.7603 35.5423 39.3229 32.1947 45.3546 26.1629C48.6621 22.8549 51.4033 19.8248 51.4022 16.2415C51.4022 13.5457 49.8054 10.6406 46.578 7.41246C43.3528 4.18639 40.4746 2.6165 37.7788 2.61758H37.7778C34.1929 2.6165 31.1638 5.35609 27.8574 8.66305C21.8256 14.6969 18.477 19.2595 26.6334 27.4164Z" fill="#63A945"/>
    <path d="M22.6742 34.1897C20.606 35.8808 18.529 37.0162 16.2232 37.0162H16.2221C13.5264 37.0173 10.6481 35.4489 7.42289 32.2206C4.19423 28.9948 2.5974 26.0889 2.5974 23.3944C2.59691 19.8108 5.33726 16.7804 8.64578 13.4724C14.677 7.43963 19.2391 4.09309 27.367 12.2194C34.5463 19.3987 32.8103 23.7944 28.177 28.8582C30.163 30.5815 31.9338 31.5782 33.5738 31.9975C39.593 25.705 43.7547 17.8046 32.7997 6.8453L32.7723 6.81523C21.3387 -4.61338 13.231 0.408504 6.80956 6.82868C2.16211 11.4759 -0.000539612 15.5702 3.88218e-07 19.714C-0.00107961 23.9391 2.25121 28.2449 6.82538 32.8201C15.1152 41.1094 21.6541 40.7445 27.0712 37.4703C25.6647 36.6487 24.1985 35.5649 22.6742 34.1897Z" fill="#007E92"/>
    <path d="M79.6601 12.0032C79.6601 12.0032 79.6601 17.9674 79.6601 18.355C79.2641 18.355 69.4672 18.355 69.0685 18.355C69.0685 17.9674 69.0685 12.0032 69.0685 12.0032H67V26.4723H69.0708C69.0708 26.4723 69.0708 20.5129 69.0708 20.1222C69.468 20.1222 79.265 20.1222 79.6616 20.1222C79.6616 20.5113 79.6616 26.4723 79.6616 26.4723H81.7329V12.0032H79.6601Z" fill="#58595B"/>
    <path fill-rule="evenodd" clip-rule="evenodd" d="M84.4921 14.01V12.0031H86.3628V14.01H84.4921ZM84.4919 26.472V15.6067H86.3627V26.472H84.4919Z" fill="#58595B"/>
    <path d="M93.9315 15.4728C92.4073 15.4728 91.3125 15.7251 90.6405 16.638C90.6405 16.233 90.6405 15.6081 90.6405 15.6081H88.873V26.4734H90.7418V19.5236C90.7418 17.6845 91.3109 17.077 94.6889 17.077H95.0607C97.8043 17.077 98.0155 17.8522 98.0155 18.9525V26.4734H99.8839V18.5965C99.8839 17.429 99.3951 15.4744 96.1037 15.4744L93.9315 15.4728Z" fill="#58595B"/>
    <path fill-rule="evenodd" clip-rule="evenodd" d="M111.332 16.2393V12.0003L113.201 11.9995V26.4694H111.433V25.5495C110.86 26.2337 109.872 26.6023 108.493 26.6023H106.472C104.163 26.6023 101.798 26.1499 101.798 22.7722V19.4034C101.798 16.5012 103.043 15.4713 106.555 15.4713H108.764C110.045 15.4713 110.857 15.7085 111.332 16.2393ZM103.669 19.2189V22.761C103.669 24.2813 104.069 25.0075 106.337 25.0091H108.696C109.684 25.0091 110.364 24.8161 110.78 24.4174C111.155 24.0582 111.331 23.5299 111.331 22.7468V19.2529C111.331 17.409 110.342 17.076 108.394 17.076H106.442C104.525 17.076 103.669 17.3821 103.669 19.2189Z" fill="#58595B"/>
    <path fill-rule="evenodd" clip-rule="evenodd" d="M115.437 17.9058C115.437 16.1908 116.539 15.4909 119.235 15.4909L119.238 15.4837H121.527C123.917 15.4837 126.248 15.7297 126.248 18.6611V26.4684H124.378V26.012C123.919 26.4755 123.174 26.6021 121.492 26.6021H118.026C116.915 26.6021 116.147 26.3577 115.67 25.8546C115.248 25.4076 115.053 24.7591 115.053 23.8162V22.0649C115.053 19.8389 116.758 19.6666 119.171 19.6666H121.494C122.978 19.6666 123.8 19.8026 124.38 20.38V18.6296C124.38 17.3046 123.671 17.0879 121.393 17.0879H119.27C117.457 17.0879 117.306 17.5102 117.306 18.0236V18.5363H115.437V17.9058ZM116.918 22.4065V23.854C116.918 24.5904 117.018 25.0073 119.03 25.0089H120.951C122.013 25.0089 123.079 24.978 123.693 24.789C124.185 24.6371 124.378 24.4046 124.378 23.9536V22.3874C124.378 21.4992 123.751 21.2674 121.323 21.2674H119.1C118.149 21.2674 117.615 21.3409 117.304 21.5118C117.072 21.6408 116.918 21.8448 116.918 22.4065Z" fill="#58595B"/>
    <path d="M142.992 15.6065C142.992 15.6065 140.168 23.708 139.796 24.5306C139.486 23.6858 137.197 15.6065 137.197 15.6065H134.814C134.814 15.6065 132.525 23.6858 132.213 24.5306C131.842 23.7064 129.022 15.6065 129.022 15.6065H127.023L131.124 26.4718H133.409C133.409 26.4718 135.664 18.5221 136.004 17.6022C136.346 18.5221 138.601 26.4718 138.601 26.4718H140.888L144.99 15.6065H142.992V15.6065Z" fill="#58595B"/>
    <path fill-rule="evenodd" clip-rule="evenodd" d="M146.133 14.01V12.0031H147.999V14.01H146.133ZM146.132 26.472V15.6067H147.999V26.472H146.132Z" fill="#58595B"/>
  </g>
</svg>
